<svg width="375" height="78" viewBox="0 0 375 78" fill="none" xmlns="http://www.w3.org/2000/svg">
<path d="M50.8359 9.17969H66.4102L55.4062 61H45.3164L52.7344 25.9492C52.9688 24.9414 53.2852 23.5352 53.6836 21.7305C54.1055 19.9023 54.4102 18.4961 54.5977 17.5117L35.5781 61H25.0664L24.5391 17.5117C24.3516 18.4961 24.0703 19.9023 23.6953 21.7305C23.3438 23.5352 23.0508 24.9414 22.8164 25.9492L15.3984 61H5.30859L16.3125 9.17969H32.0625L32.8008 49.9258L50.8359 9.17969Z" fill="black"/>
<path d="M57.796 69.3066L59.0616 69.3769C60.0225 69.4238 60.96 69.3886 61.8741 69.2714C62.7881 69.1542 63.5967 68.8847 64.2999 68.4628C64.9796 68.0644 65.7061 67.2323 66.4796 65.9667C67.253 64.7011 67.6163 63.9277 67.5694 63.6464L62.0147 23.6386H73.1592L75.5147 51.9042L89.4366 23.6386H100.089L78.9249 61.3261C74.8467 68.5917 71.8819 73.0917 70.0303 74.8261C68.2022 76.5839 65.0733 77.4628 60.6436 77.4628C59.753 77.4628 59.0381 77.4511 58.4991 77.4277C57.96 77.4277 57.1631 77.3925 56.1085 77.3222L57.796 69.3066Z" fill="black"/>
<path d="M114.545 19.1386L112.119 30.5644H124.845C127.119 30.5644 129.052 30.1425 130.646 29.2988C132.263 28.4316 133.306 26.9081 133.775 24.7284C134.267 22.3144 133.67 20.7206 131.982 19.9472C130.459 19.4081 128.443 19.1386 125.935 19.1386H114.545ZM110.291 39.1425L107.373 52.9589H120.099C122.373 52.9589 124.201 52.6542 125.584 52.0448C128.138 50.9198 129.755 48.7636 130.435 45.5761C130.998 42.8808 130.271 41.0292 128.255 40.0214C127.13 39.4589 125.443 39.1659 123.193 39.1425H110.291ZM143.619 15.6581C144.744 17.8613 144.99 20.498 144.357 23.5683C143.677 26.7323 142.33 29.2753 140.314 31.1972C139.213 32.2753 137.701 33.2597 135.779 34.1503C138.216 35.1113 139.88 36.6347 140.771 38.7206C141.685 40.8066 141.826 43.3378 141.193 46.3144C140.537 49.3847 139.177 52.1386 137.115 54.5761C135.779 56.1933 134.255 57.5527 132.545 58.6542C130.623 59.9198 128.478 60.787 126.111 61.2558C123.767 61.7245 121.271 61.9589 118.623 61.9589H95.1383L106.142 10.1386H131.314C137.642 10.2323 141.744 12.0722 143.619 15.6581Z" fill="black"/>
<path d="M171.448 42.8691C172.268 39.0253 172.104 36.0722 170.955 34.0097C169.83 31.9238 167.803 30.8808 164.873 30.8808C161.944 30.8808 159.471 31.9238 157.455 34.0097C155.44 36.0722 154.022 39.0253 153.202 42.8691C152.381 46.7128 152.534 49.6777 153.659 51.7636C154.807 53.8495 156.846 54.8925 159.776 54.8925C162.705 54.8925 165.178 53.8495 167.194 51.7636C169.209 49.6777 170.627 46.7128 171.448 42.8691ZM158.018 63.2948C151.432 63.2948 146.944 61.3027 144.553 57.3183C142.186 53.3105 141.6 48.4941 142.795 42.8691C143.967 37.3378 146.604 32.5448 150.705 28.4902C154.807 24.4355 160.151 22.4081 166.737 22.4081C173.323 22.4081 177.799 24.4355 180.166 28.4902C182.534 32.5448 183.131 37.3378 181.959 42.8691C180.764 48.4941 178.116 53.3105 174.014 57.3183C169.936 61.3027 164.604 63.2948 158.018 63.2948Z" fill="black"/>
<path d="M211.314 42.8691C212.134 39.0253 211.97 36.0722 210.822 34.0097C209.697 31.9238 207.67 30.8808 204.74 30.8808C201.81 30.8808 199.338 31.9238 197.322 34.0097C195.306 36.0722 193.888 39.0253 193.068 42.8691C192.248 46.7128 192.4 49.6777 193.525 51.7636C194.674 53.8495 196.713 54.8925 199.642 54.8925C202.572 54.8925 205.045 53.8495 207.06 51.7636C209.076 49.6777 210.494 46.7128 211.314 42.8691ZM197.884 63.2948C191.299 63.2948 186.81 61.3027 184.42 57.3183C182.052 53.3105 181.466 48.4941 182.662 42.8691C183.834 37.3378 186.47 32.5448 190.572 28.4902C194.674 24.4355 200.017 22.4081 206.603 22.4081C213.189 22.4081 217.666 24.4355 220.033 28.4902C222.4 32.5448 222.998 37.3378 221.826 42.8691C220.631 48.4941 217.982 53.3105 213.881 57.3183C209.802 61.3027 204.47 63.2948 197.884 63.2948Z" fill="black"/>
<path d="M231.704 10.3144H241.548L235.606 38.2284L251.146 23.8144H263.556L247.032 38.4745L255.997 61.9589H243.903L238.208 45.5761L233.11 49.9003L230.579 61.9589H220.735L231.704 10.3144Z" fill="black"/>
<path d="M268.976 10.1386H279.804L270.769 52.6425H296.433L294.464 61.9589H257.972L268.976 10.1386Z" fill="black"/>
<path d="M312.893 19.0683H302.733L304.701 9.82219H314.861L312.893 19.0683ZM301.748 23.6386H311.908L303.787 61.9589H293.627L301.748 23.6386Z" fill="black"/>
<path d="M322.462 48.7656C322.298 50.5469 322.497 51.8125 323.06 52.5625C323.997 53.8984 326.142 54.5664 329.493 54.5664C331.462 54.5664 333.091 54.2734 334.38 53.6875C335.669 53.1016 336.442 52.2227 336.7 51.0508C336.935 49.9258 336.642 49.0703 335.821 48.4844C335.001 47.8984 331.731 46.8906 326.013 45.4609C321.911 44.3828 319.146 43.0352 317.716 41.418C316.263 39.8242 315.864 37.5273 316.521 34.5273C317.271 30.9883 319.298 27.9531 322.603 25.4219C325.931 22.8672 330.114 21.5898 335.153 21.5898C339.935 21.5898 343.626 22.5508 346.228 24.4727C348.829 26.3711 349.86 29.6641 349.321 34.3516H339.302C339.419 33.0625 339.267 32.043 338.845 31.293C338.024 29.9336 336.29 29.2539 333.642 29.2539C331.462 29.2539 329.833 29.5938 328.755 30.2734C327.7 30.9531 327.079 31.75 326.892 32.6641C326.634 33.8125 326.95 34.6445 327.841 35.1602C328.708 35.6992 331.989 36.625 337.685 37.9375C341.458 38.875 344.142 40.293 345.735 42.1914C347.306 44.1133 347.786 46.5156 347.177 49.3984C346.356 53.1953 344.282 56.3008 340.954 58.7148C337.626 61.1055 333.009 62.3008 327.103 62.3008C321.079 62.3008 316.896 61.0352 314.552 58.5039C312.231 55.9492 311.481 52.7031 312.302 48.7656H322.462Z" fill="black"/>
<path d="M351.015 30.168L352.527 23.0312H357.871L360.156 12.3438H370.07L367.785 23.0312H374.007L372.496 30.168H366.273L361.949 50.418C361.621 51.9883 361.609 52.9727 361.914 53.3711C362.242 53.7461 363.425 53.9336 365.464 53.9336C365.769 53.9336 366.086 53.9336 366.414 53.9336C366.765 53.9102 367.117 53.8867 367.468 53.8633L365.851 61.3516L361.07 61.5273C356.312 61.6914 353.253 60.8711 351.894 59.0664C351.027 57.918 350.839 56.1484 351.332 53.7578L356.359 30.168H351.015Z" fill="black"/>
</svg>
