<svg width="106" height="106" viewBox="0 0 106 106" fill="none" xmlns="http://www.w3.org/2000/svg">
<path fill-rule="evenodd" clip-rule="evenodd" d="M8.8335 16.8333C8.8335 13.062 8.8335 11.1764 10.0051 10.0048C11.1766 8.83325 13.0623 8.83325 16.8335 8.83325H89.1668C92.9381 8.83325 94.8237 8.83325 95.9953 10.0048C97.1668 11.1764 97.1668 13.062 97.1668 16.8333V89.1666C97.1668 92.9378 97.1668 94.8234 95.9953 95.995C94.8237 97.1666 92.9381 97.1666 89.1668 97.1666H16.8335C13.0623 97.1666 11.1766 97.1666 10.0051 95.995C8.8335 94.8234 8.8335 92.9378 8.8335 89.1666V16.8333ZM36.2592 75.3494C41.0619 71.6641 46.9465 69.6666 53.0002 69.6666C59.0539 69.6666 64.9384 71.6641 69.7411 75.3494C74.5438 79.0346 77.9963 84.2017 79.5631 90.0491C79.7061 90.5825 79.3895 91.1309 78.856 91.2738C78.3225 91.4168 77.7742 91.1002 77.6313 90.5667C76.1784 85.1446 72.977 80.3533 68.5236 76.9361C64.0702 73.5189 58.6136 71.6666 53.0002 71.6666C47.3867 71.6666 41.9302 73.5188 37.4767 76.9361C33.0233 80.3533 29.8219 85.1446 28.3691 90.5667C28.2261 91.1002 27.6778 91.4168 27.1443 91.2738C26.6108 91.1309 26.2943 90.5825 26.4372 90.0491C28.004 84.2017 31.4565 79.0346 36.2592 75.3494ZM40.7502 39.7499C40.7502 32.9844 46.2347 27.4999 53.0002 27.4999C59.7656 27.4999 65.2502 32.9844 65.2502 39.7499C65.2502 46.5154 59.7656 51.9999 53.0002 51.9999C46.2347 51.9999 40.7502 46.5154 40.7502 39.7499ZM53.0002 25.4999C45.1301 25.4999 38.7502 31.8799 38.7502 39.7499C38.7502 47.62 45.1301 53.9999 53.0002 53.9999C60.8702 53.9999 67.2502 47.62 67.2502 39.7499C67.2502 31.8799 60.8702 25.4999 53.0002 25.4999Z" fill="#222222"/>
<rect x="9.3335" y="9.33325" width="87.3333" height="87.3333" rx="3.5" stroke="#222222"/>
</svg>
